<mxfile host="app.diagrams.net" modified="2024-05-03T03:36:32.391Z" agent="Mozilla/5.0 (Windows NT 10.0; Win64; x64) AppleWebKit/537.36 (KHTML, like Gecko) Chrome/124.0.0.0 Safari/537.36 Edg/124.0.0.0" etag="WsmtTyWMGwPtOUnBBYF5" version="24.3.1" type="google">
  <diagram name="PÃ¡gina-1" id="sfVplZX_0VeSclxKmI9Q">
    <mxGraphModel grid="1" page="1" gridSize="10" guides="1" tooltips="1" connect="1" arrows="1" fold="1" pageScale="1" pageWidth="827" pageHeight="1169" math="0" shadow="0">
      <root>
        <mxCell id="0" />
        <mxCell id="1" parent="0" />
        <mxCell id="9UXgUb4wSPFVlOh5gidw-3" value="" style="edgeStyle=orthogonalEdgeStyle;rounded=0;orthogonalLoop=1;jettySize=auto;html=1;" edge="1" parent="1" source="9UXgUb4wSPFVlOh5gidw-1" target="9UXgUb4wSPFVlOh5gidw-2">
          <mxGeometry relative="1" as="geometry" />
        </mxCell>
        <mxCell id="9UXgUb4wSPFVlOh5gidw-1" value="INICIO" style="ellipse;whiteSpace=wrap;html=1;" vertex="1" parent="1">
          <mxGeometry x="400" y="40" width="80" height="80" as="geometry" />
        </mxCell>
        <mxCell id="9UXgUb4wSPFVlOh5gidw-5" value="" style="edgeStyle=orthogonalEdgeStyle;rounded=0;orthogonalLoop=1;jettySize=auto;html=1;" edge="1" parent="1" source="9UXgUb4wSPFVlOh5gidw-2" target="9UXgUb4wSPFVlOh5gidw-4">
          <mxGeometry relative="1" as="geometry" />
        </mxCell>
        <mxCell id="9UXgUb4wSPFVlOh5gidw-2" value="INPUT&lt;div&gt;n&lt;/div&gt;" style="shape=parallelogram;perimeter=parallelogramPerimeter;whiteSpace=wrap;html=1;fixedSize=1;" vertex="1" parent="1">
          <mxGeometry x="380" y="150" width="120" height="60" as="geometry" />
        </mxCell>
        <mxCell id="9UXgUb4wSPFVlOh5gidw-7" value="" style="edgeStyle=orthogonalEdgeStyle;rounded=0;orthogonalLoop=1;jettySize=auto;html=1;" edge="1" parent="1" source="9UXgUb4wSPFVlOh5gidw-4" target="9UXgUb4wSPFVlOh5gidw-6">
          <mxGeometry relative="1" as="geometry" />
        </mxCell>
        <mxCell id="9UXgUb4wSPFVlOh5gidw-4" value="suma = 0&lt;div&gt;i = 1&lt;/div&gt;" style="whiteSpace=wrap;html=1;" vertex="1" parent="1">
          <mxGeometry x="390" y="240" width="100" height="40" as="geometry" />
        </mxCell>
        <mxCell id="9UXgUb4wSPFVlOh5gidw-9" value="" style="edgeStyle=orthogonalEdgeStyle;rounded=0;orthogonalLoop=1;jettySize=auto;html=1;" edge="1" parent="1" source="9UXgUb4wSPFVlOh5gidw-6" target="9UXgUb4wSPFVlOh5gidw-8">
          <mxGeometry relative="1" as="geometry" />
        </mxCell>
        <mxCell id="9UXgUb4wSPFVlOh5gidw-12" value="" style="edgeStyle=orthogonalEdgeStyle;rounded=0;orthogonalLoop=1;jettySize=auto;html=1;" edge="1" parent="1" source="9UXgUb4wSPFVlOh5gidw-6" target="9UXgUb4wSPFVlOh5gidw-11">
          <mxGeometry relative="1" as="geometry" />
        </mxCell>
        <mxCell id="9UXgUb4wSPFVlOh5gidw-6" value="n &amp;gt;= i" style="rhombus;whiteSpace=wrap;html=1;" vertex="1" parent="1">
          <mxGeometry x="400" y="320" width="80" height="80" as="geometry" />
        </mxCell>
        <mxCell id="9UXgUb4wSPFVlOh5gidw-8" value="OUTPUT&lt;div&gt;suma&lt;/div&gt;" style="shape=parallelogram;perimeter=parallelogramPerimeter;whiteSpace=wrap;html=1;fixedSize=1;" vertex="1" parent="1">
          <mxGeometry x="540" y="330" width="120" height="60" as="geometry" />
        </mxCell>
        <mxCell id="9UXgUb4wSPFVlOh5gidw-10" value="NO" style="text;html=1;align=center;verticalAlign=middle;resizable=0;points=[];autosize=1;strokeColor=none;fillColor=none;" vertex="1" parent="1">
          <mxGeometry x="470" y="328" width="40" height="30" as="geometry" />
        </mxCell>
        <mxCell id="9UXgUb4wSPFVlOh5gidw-11" value="suma = suma + (pow( (-1), (i+1) )) / i" style="whiteSpace=wrap;html=1;" vertex="1" parent="1">
          <mxGeometry x="330" y="440" width="220" height="60" as="geometry" />
        </mxCell>
        <mxCell id="9UXgUb4wSPFVlOh5gidw-13" value="" style="endArrow=none;html=1;rounded=0;exitX=0;exitY=0.5;exitDx=0;exitDy=0;" edge="1" parent="1" source="9UXgUb4wSPFVlOh5gidw-6">
          <mxGeometry width="50" height="50" relative="1" as="geometry">
            <mxPoint x="280" y="520" as="sourcePoint" />
            <mxPoint x="330" y="470" as="targetPoint" />
            <Array as="points">
              <mxPoint x="280" y="360" />
              <mxPoint x="280" y="470" />
            </Array>
          </mxGeometry>
        </mxCell>
        <mxCell id="9UXgUb4wSPFVlOh5gidw-14" value="++i" style="whiteSpace=wrap;html=1;" vertex="1" parent="1">
          <mxGeometry x="250" y="400" width="60" height="30" as="geometry" />
        </mxCell>
        <mxCell id="9UXgUb4wSPFVlOh5gidw-15" value="SI" style="text;html=1;align=center;verticalAlign=middle;resizable=0;points=[];autosize=1;strokeColor=none;fillColor=none;" vertex="1" parent="1">
          <mxGeometry x="455" y="398" width="30" height="30" as="geometry" />
        </mxCell>
      </root>
    </mxGraphModel>
  </diagram>
</mxfile>
